<svg fill="none" height="26" viewBox="0 0 104 26" width="104" xmlns="http://www.w3.org/2000/svg" xmlns:xlink="http://www.w3.org/1999/xlink"><clipPath id="a"><path d="m.462036 0h103.014v26h-103.014z"/></clipPath><g clip-path="url(#a)"><path d="m2.80354 3.24973c-.27608-.16585-.57894-.24827-.96421-.24827-.41308 0-.74376.08242-.992022.24827-.247233.16482-.385272.38527-.385272.66134v18.15093c0 .2204.138039.4409.385272.6335.276082.1927.578942.3029.964212.3029.34509.001.68195-.1051.96421-.3029.27505-.1926.41308-.4131.41308-.6335v-18.15093c.02782-.27607-.11022-.49652-.38527-.66134zm2.28588 9.52977c-.16482.1658-.24826.3863-.19264.7159.02782.3307.16483.6336.4409.9096.24724.2751.5501.4677.88077.5511.33068.0825.57894.0268.74376-.1102l1.45971-.9096v8.1257c0 .2204.13804.4409.3863.6335.24724.1927.57791.3029.96318.3029.3863 0 .717-.1102.992-.3029.2751-.1926.4131-.4131.4131-.6335v-10.9627c0-.275-.138-.4676-.4131-.6335-.275-.1648-.6057-.2472-1.01878-.2472-.41309 0-.71595.0824-.96421.2472zm10.87928 6.4177c0 .5511.1659.992.4687 1.2671.3029.276.716.4409 1.2115.4409.6613 0 1.2949-.2751 1.8738-.8262.6057-.5511.9086-1.1568.9086-1.7904v-.9642h-.6614c-.7705 0-1.404.0278-1.9006.1102-.4955.0825-.9364.2483-1.3216.5512-.3853.275-.579.6881-.579 1.2114zm-2.7535.3307c0-1.4051.5233-2.3683 1.5699-2.9194s2.5341-.8262 4.5171-.8262h1.1291v-.4965c0-.7984-.2205-1.4597-.6336-2.0376-.413-.5789-1.0744-.854-1.9284-.854-.7437 0-1.4041.138-1.9552.4409-.5511.2751-.8818.4409-.9364.4409-.3028 0-.5233-.138-.7159-.4409-.1927-.2761-.2761-.6067-.2761-.9642 0-.4409.4131-.854 1.2671-1.1846.8261-.3307 1.7358-.4955 2.6722-.4955 1.7903 0 3.112.4955 3.966 1.4597s1.2949 2.1756 1.2949 3.6353v6.5558c0 .2482-.1381.4687-.3863.6335-.2473.1926-.5779.275-.9364.275-.3575 0-.6336-.0824-.8808-.275-.2483-.1927-.3585-.3853-.3585-.6335v-.9086c-1.1568 1.3494-2.4785 2.0376-3.9114 2.0376-1.0188 0-1.845-.3029-2.4785-.8808-.6882-.5789-1.0188-1.4329-1.0188-2.5619zm12.3122-1.7348v-2.3693c0-1.5421.4398-2.8091 1.3495-3.7733.9085-.9642 2.2302-1.4319 4.0206-1.4319 1.1301 0 2.0665.1926 2.837.5779.7716.3852 1.1568.8261 1.1568 1.3227 0 .3028-.1092.6057-.3296.8807-.2205.3029-.4687.4409-.7716.4409-.0824 0-.3852-.138-.9364-.3852-.5233-.2483-1.1022-.3863-1.7625-.3863-1.9006 0-2.8649.9096-2.8649 2.7545v2.3415c0 1.845.9643 2.7546 2.8916 2.7546.6614 0 1.2403-.138 1.7904-.4131.5233-.2761.854-.4141.9364-.4141.3585 0 .6336.138.854.4141.2205.2751.3307.5779.3307.8808 0 .4955-.3853.9364-1.1847 1.3494-.7983.4131-1.7625.6336-2.9194.6336-1.7904 0-3.1399-.4677-4.0484-1.4319-.8818-.9086-1.3495-2.1756-1.3495-3.7456zm11.5128 4.0763v-17.98614c0-.27505.1102-.46871.3585-.63353.2472-.16585.5501-.24827.9632-.24827.3863 0 .7437.08242.992.24827.2751.16482.4131.38527.4131.63353v11.65084l5.4257-5.0127c.1659-.1658.3585-.2482.579-.2482.3028 0 .5779.138.8818.4131.3028.276.4398.5789.4398.8817 0 .2205-.0824.4131-.2204.5779l-3.3603 3.0029 4.0773 5.9212c.1102.1658.1648.3028.1648.4687 0 .3029-.1648.6335-.5233.9364-.3585.3028-.6882.4687-1.0188.4687-.3029 0-.5233-.138-.716-.3863l-3.829-5.674-1.9006 1.7358v3.2779c0 .2194-.138.4398-.4131.6325-.275.1936-.6057.2761-.992.2761-.3853 0-.6882-.0825-.9364-.2761-.2473-.2194-.3853-.4399-.3853-.6603zm14.4601-6.3075h4.3245c.3863 0 .6335-.0557.7716-.1659.138-.1102.1926-.3028.1926-.6335 0-.6881-.2472-1.2671-.7438-1.7626-.4955-.4677-1.129-.7159-1.8727-.7159-.716 0-1.3495.2204-1.8728.6881-.5233.4687-.7716 1.0466-.7716 1.7358v.854zm-2.7268 2.2312v-2.4795c0-1.3773.5233-2.5609 1.5977-3.5807 1.0467-.991 2.3415-1.5143 3.8291-1.5143 1.4319 0 2.6443.4677 3.6631 1.3494 1.0188.9086 1.5154 2.0376 1.5154 3.4427 0 .5234-.0557.9642-.1937 1.2949-.1102.3307-.3029.5501-.5779.6882-.2483.138-.4955.2204-.7159.2482-.2205.0278-.5234.0546-.8818.0546h-5.4814v.6068c0 .8807.3028 1.5699.9364 2.0932.6335.5233 1.4329.7705 2.4517.7705.716 0 1.3773-.1648 2.0108-.4955.6336-.3306 1.0189-.4955 1.1569-.4955.3029 0 .5511.137.7438.4131.2204.2751.3028.5511.3028.8262 0 .4409-.4131.854-1.2392 1.3216-.8262.4409-1.8461.6614-3.0575.6614-1.7626 0-3.2233-.4687-4.3523-1.4319-1.1569-.9642-1.708-2.2313-1.708-3.7734zm12.7809 4.0763v-10.6042c0-.2761.1381-.4687.3853-.6335.2483-.1659.5789-.2483.9642-.2483.3307 0 .6335.0824.8818.2483.2472.1648.3575.3852.3575.6603v1.1568c.3028-.6057.7437-1.129 1.3495-1.5699.6067-.4399 1.2402-.6603 1.9562-.6603h.8261c.2751 0 .5234.1102.716.3574.2204.2483.3029.5233.3029.854s-.1103.6335-.3029.8818c-.2205.2472-.4409.3575-.716.3575h-.8261c-.8262 0-1.5699.3584-2.2035 1.0744-.6335.7159-.9364 1.6255-.9364 2.7546v5.3433c0 .2204-.138.4408-.4131.6335-.276.1926-.6067.275-.992.275s-.6881-.0824-.9642-.275c-.275-.1648-.3853-.3853-.3853-.6057zm10.1912-3.8836c0 .8807.3028 1.6801.9364 2.3682.6335.6892 1.4051 1.0188 2.2859 1.0188.9096 0 1.6801-.3296 2.3137-1.0188.6335-.6881.9642-1.4597.9642-2.3682v-2.837c0-.854-.3307-1.6256-.9642-2.2869-.6614-.6881-1.4041-1.0188-2.2859-1.0188s-1.6524.3307-2.2859 1.0188c-.6335.6891-.9364 1.4329-.9364 2.2869v2.837zm-1.6802 0v-2.837c0-1.3227.4955-2.4795 1.4597-3.4437.9643-.9632 2.1211-1.4597 3.4706-1.4597 1.3216 0 2.5063.4687 3.4705 1.4329.991.9642 1.4875 2.121 1.4875 3.4427v2.837c0 1.2948-.4965 2.4517-1.4875 3.4705-.992.992-2.1489 1.5153-3.4705 1.5153-1.2949 0-2.4518-.4965-3.4427-1.5153-.9921-.9642-1.4876-2.1211-1.4876-3.4427zm11.926 4.104v-11.0451c0-.1926.0834-.3306.2204-.4687.1659-.1102.3585-.1648.6068-.1648.2194 0 .3852.0546.55.1926.1659.1381.2205.2751.2205.4409v1.2115c.3029-.5779.7438-1.0466 1.3495-1.4319.6067-.3853 1.3227-.5789 2.121-.5789 1.2393 0 2.3415.4687 3.2501 1.4329.9096.9642 1.3773 2.121 1.3773 3.4427v6.9688c0 .2205-.0824.3853-.2472.4955-.1659.1102-.3863.1926-.6068.1926-.2204 0-.3852-.0546-.5779-.1926-.1658-.1102-.2482-.275-.2482-.4955v-6.941c0-.854-.3307-1.6256-.9642-2.2869-.6336-.6881-1.4041-1.0188-2.2859-1.0188-.8262 0-1.5421.3028-2.1489.9096-.6325.6057-.9364 1.4041-.9364 2.3961v6.941c0 .1648-.0824.3307-.275.4677-.1649.138-.3585.2204-.6058.2204-.2482 0-.4409-.0824-.6057-.2204-.1102-.1102-.1936-.2751-.1936-.4677zm13.3588-6.2529h5.2068c.523 0 .854-.0546 1.046-.1648.165-.1102.247-.3585.247-.716 0-.8539-.302-1.6255-.936-2.2868-.606-.6604-1.3773-.991-2.3137-.991-.9086 0-1.6802.3028-2.3137.9364-.6335.6335-.9364 1.3772-.9364 2.2312zm-1.6802 2.1489v-2.9205c0-1.3216.4966-2.4506 1.4597-3.387.9643-.9364 2.1489-1.4329 3.4984-1.4329 1.3227 0 2.4519.4687 3.4159 1.3505.963.9085 1.432 2.0376 1.432 3.4148 0 .4955-.056.8818-.165 1.1847-.11.3029-.304.4955-.551.6335-.248.1103-.469.1927-.689.2473-.221.0278-.496.0556-.854.0556h-5.8668v.9642c0 1.0188.3585 1.845 1.1022 2.4785.7438.6057 1.6802.9364 2.837.9364.578 0 1.1016-.0824 1.5426-.2751.359-.1339.701-.31 1.018-.5233.249-.1658.414-.276.551-.276.193 0 .359.0834.496.276.138.1927.22.3575.22.5233 0 .3575-.385.7438-1.129 1.1291-.743.3852-1.68.5789-2.781.5789-1.6533 0-2.975-.4687-4.0216-1.3773-.9921-.8818-1.5154-2.0932-1.5154-3.5807z" fill="#000"/></g></svg>