<svg fill="none" height="26" viewBox="0 0 64 26" width="64" xmlns="http://www.w3.org/2000/svg"><g fill="#ff5622"><path d="m6.66447 12.0977-.1367 3.878s.84828.9755 2.73669.9755c1.80614 0 3.55754-1.2195 3.55754-4.2682 0-2.0732-1.0398-3.29285-2.5998-3.29285-2.43566 0-3.50292 1.51235-3.55773 2.70755zm-3.96798-9v-.0733c0-.14633-.08209-.31701-.27376-.31701-.19151 0-.30107.02445-.52005.2682-.32824.39031-.82097.51232-1.313409.31701-.4925851-.24371-.739026-.70722-.4925851-1.2194.6840981-1.36573 1.8607841-2.07322085 3.3386841-2.07322085 2.62714 0 3.33867 1.56104085 3.36585 3.31711085v.07316c0 .99991-.13675 2.95126-.13675 4.46345.90324-.65864 2.29876-1.51219 4.51543-1.51219 3.284 0 5.4733 2.68278 5.4733 6.34149 0 1.4388-.4105 2.6097-1.0672 3.512 2.4904-.9754 4.2142-3.0974 4.2142-7.29258 0-.68286.602-1.2194 1.3684-1.2194.7663 0 1.3683.53654 1.3683 1.2194 0 7.43898-5.747 10.85368-13.27244 10.85368-4.78913 0-6.43124-2.6831-6.43124-3.9025 0-.7316.13688-1.7072.13688-2.439 0-7.07309-.27361-9.02444-.27361-10.3169"/><path d="m19.8257 16.3414c0-.8536.1369-1.7073.1369-2.9268 0-2.0731-.2736-5.24386-.2736-5.24386 0-1.00004.9304-1.82923 2.0525-1.82923 1.1219 0 2.0523.82919 2.0523 1.82923 0 3.17076-.2735 4.99996-.2735 7.92676 0 .4634.4378.8537.9577.8537 1.779 0 3.6944-2.0732 3.6944-8.04878 0-.68286.6021-1.2194 1.3685-1.2194.7662 0 1.3682.53654 1.3682 1.2194 0 7.31708-2.8734 10.85368-7.3888 10.85368-2.1072 0-3.6946-1.5367-3.6946-3.4147zm2.0252-15.609711c1.2862 0 2.3261.926841 2.3261 2.073221 0 1.14634-1.0399 2.07322-2.3261 2.07322-1.2863 0-2.3262-.92688-2.3262-2.07322 0-1.14638 1.0399-2.073221 2.3262-2.073221z"/><path d="m32.9608 19.7561c-3.1742 0-4.9257-1.683-4.9257-3.7804 0-.8537.1369-1.7318.1369-2.5611 0-1.7316-.0274-3.2439-.0821-4.63402h-.3284c-.6843 0-1.2315-.488-1.2315-1.09756 0-.60984.5472-1.09753 1.2315-1.09753h.219c-.0548-1.00015-.0823-1.92689-.0823-2.80493 0-1.00014.9304-1.82934 2.0525-1.82934s2.0525.8292 2.0525 1.82934c0 .75607-.0274 1.68291-.0547 2.73163.8757-.02435 1.8882-.04881 3.2021-.04881.766 0 1.368.53664 1.368 1.21964 0 .6829-.602 1.2194-1.368 1.2194-1.3414 0-2.3813 0-3.2842-.02432-.0821 1.9999-.1369 4.1707-.1369 6.1219 0 1.0487.602 1.9512 1.9157 1.9512 3.01 0 5.0625-2.3171 5.0625-8.04878 0-.68286.6024-1.2194 1.3686-1.2194s1.3682.53654 1.3682 1.2194c0 6.70738-3.1472 10.85368-8.4837 10.85368"/><path d="m46.9165 8.90242c0-.68286.602-1.2194 1.3682-1.2194s1.3682.53654 1.3682 1.2194c0 7.31708-2.8732 10.85368-7.3886 10.85368-2.107 0-3.6945-1.5367-3.6945-3.4147 0-.7316.1372-2.195.1372-2.9268 0-7.07309-.274-9.51216-.274-11.58538 0-.999878.9304-1.82924085 2.0523-1.82924085 1.1227 0 2.0526.82936285 2.0526 1.82924085 0 2.07322-.2736 4.26831-.2736 14.26828 0 .4634.4374.8537.9581.8537 1.7783 0 3.6941-2.0732 3.6941-8.04878"/><path d="m56.7401 20.2927c-3.0925.5365-5.0357.7561-5.0357 2.0244 0 .561.4656 1.2194 1.9159 1.2194 2.4627 0 3.2019-1.3413 3.1472-2.8048 0-.1463-.0274-.2927-.0274-.439zm-.3014-3.5855c-.711.7805-2.4631 1.4634-4.7343 1.4634-3.284 0-4.7891-2.0731-4.7891-4.756 0-2.0731-.2732-3.65858-.2732-4.99985 0-1.00005.93-1.82924 2.0523-1.82924 1.1219 0 2.0523.82919 2.0523 1.82924 0 1.34127-.2737 3.29265-.2737 4.75605 0 1.2195.5473 2.195 2.1891 2.195 2.4905 0 3.5577-1.3414 3.5577-2.5609 0-1.4634-.2732-3.04888-.2732-4.39015 0-1.00005.93-1.82924 2.0523-1.82924 1.1219 0 2.0526.82919 2.0526 1.82924 0 1.34127-.274 2.92675-.274 4.99985v.439c.0274 1.2439.1642 2.3171.3284 3.2441.4925-.244.9855-.7075 1.6148-1.5122.3284-.4147.8757-.561 1.3956-.3417.5473.2684.8209.7319.5473 1.3171-.602 1.2927-1.7513 2.3415-3.229 2.8294.0274.1462.0274.317.0274.4877 0 2.8049-1.0398 6.122-6.8417 6.122-4.379 0-5.6104-1.7319-5.6104-3.6829 0-3.0976 4.4063-3.3171 8.5657-4.2683z"/></g></svg>