<svg fill="none" height="26" viewBox="0 0 89 26" width="89" xmlns="http://www.w3.org/2000/svg" xmlns:xlink="http://www.w3.org/1999/xlink"><clipPath id="a"><path d="m0 0h88.2114v26h-88.2114z"/></clipPath><g clip-path="url(#a)" fill="#231f20"><path d="m26.0163 26.0163h-26.0163v-26.0163h26.0163zm-24.66671-1.3388h23.30621v-23.30623h-23.30621z"/><path d="m18.3739 6.02905h2.4553v13.46885h-2.4553z"/><path d="m13.8862 16.2946c-.6981.4888-1.5326.7449-2.3848.7317-1.1428 0-2.23878-.4539-3.04686-1.262-.80809-.8081-1.26207-1.9041-1.26207-3.0469s.45398-2.2388 1.26207-3.0469c.80808-.80809 1.90406-1.26206 3.04686-1.26206.951.00048 1.8744.3191 2.6233.90515l2.141-1.78862c-1.0357-.97-2.3377-1.60825-3.7388-1.83277-1.4011-.22453-2.83735-.02508-4.12425.57273-1.28691.59782-2.36571 1.5667-3.09787 2.7822-.73216 1.21547-1.08422 2.62217-1.01099 4.03917.07323 1.4171.56841 2.78 1.42196 3.9135.85355 1.1336 2.02648 1.9861 3.36815 2.4481 1.3417.462 2.7908.5123 4.1613.1445 1.3705-.3677 2.5998-1.1368 3.5299-2.2084-.0596-.0813-1.4742-2.1951-2.8889-1.0894z"/><path d="m36.1086 14.0832-.7696-1.9458h-2.8401l-.7697 1.9458h-1.523l3.3062-8.13008h.8943l3.29 8.13008zm-1.8916-4.9214c-.0867-.23849-.2005-.56911-.2927-.87263-.0828.29562-.1804.58687-.2927.87263l-.6666 1.729h1.9458z"/><path d="m41.9569 14.17c-.7492.0132-1.4883-.1739-2.1409-.542l-.1681-1.5502c.6612.4795 1.4544.7427 2.271.7534.786 0 1.3009-.3902 1.3009-.9973 0-.607-.3523-.9322-1.1979-1.1815-1.5013-.4445-2.233-1.25207-2.233-2.43907 0-1.18699.9105-2.28184 2.6233-2.28184.6555-.0114 1.303.14536 1.8807.45529l-.3035 1.30081c-.4641-.27396-.9898-.4268-1.5284-.44445-.7426 0-1.1437.40651-1.1437.88347 0 .47697.374.76965 1.084.99729 1.4526.45528 2.3849 1.1599 2.3849 2.5854 0 1.4254-.9702 2.4607-2.8293 2.4607z"/><path d="m49.4745 14.17c-.7584.0181-1.5075-.1692-2.1681-.542l-.168-1.5502c.6611.4795 1.4544.7427 2.271.7534.7859 0 1.3008-.3902 1.3008-.9973 0-.607-.3523-.9322-1.1978-1.1815-1.5013-.4445-2.233-1.25207-2.233-2.43907 0-1.18699.9105-2.28184 2.6233-2.28184.6555-.0114 1.303.14536 1.8807.45529l-.3035 1.30081c-.4625-.27331-.9862-.42613-1.523-.44445-.748 0-1.1491.40651-1.1491.88347 0 .47697.374.76965 1.1111.99729 1.4472.45528 2.3794 1.1599 2.3794 2.5854 0 1.4254-.9539 2.4607-2.8238 2.4607z"/><path d="m60.0815 14.0832-.7805-1.9458h-2.8347l-.7696 1.9458h-1.5285l3.3063-8.13008h.8943l3.2954 8.13008zm-1.8645-4.9214c-.0867-.23849-.2005-.56911-.2873-.87263-.0811.29549-.177.58673-.2872.87263l-.6721 1.729h1.9458z"/><path d="m70.7645 14.2079-3.4689-3.7941c-.542-.61786-1.1815-1.34956-1.691-1.94577v1.85367 3.7344h-1.5502v-8.02168h1.2087l3.1057 3.39295c.4282.46613 1.084 1.19783 1.5122 1.73983h.0271c-.0271-.542-.0271-1.1599-.0271-1.7073v-3.41463h1.5501v8.17343z"/><path d="m78.0057 7.35692v6.72628h-1.5881v-6.72628h-2.4498v-1.3225h6.504v1.3225z"/><path d="m82.9703 14.0832v-8.04878h4.5149v1.3225h-2.916v2.01626h2.4228v1.33872h-2.4228v2.0434h3.3225v1.3279z"/><path d="m33.6263 20.3813h-.1789l-.6341-1.8212c-.0867-.2601-.1843-.542-.2927-.9105-.1084.3685-.2005.6558-.2927.9105l-.6341 1.8212h-.1789l-1.2032-3.4526h.5149l.542 1.5664c.0759.2276.1788.5041.2493.7805.0759-.2764.1626-.542.2439-.7805l.542-1.5664h.439l.542 1.5664c.0759.2222.1626.5041.2385.7805.0705-.271.1735-.542.2493-.7805l.542-1.5664h.4716z"/><path d="m35.3444 20.3325v-3.4038h1.8374v.4445h-1.3225v1.0298h1.084v.439h-1.084v1.0461h1.5067v.4444z"/><path d="m40.3309 20.3325-.3686-.8781h-1.3225l-.3685.8781h-.5041l1.4526-3.4526h.1843l1.4525 3.4526zm-.8781-2.1247c-.0571-.1361-.1059-.2754-.1463-.4173-.0338.1432-.081.2829-.1409.4173l-.3361.8347h.9594z"/><path d="m41.469 20.3325v-3.4038h.542v2.9594h1.4959v.4444z"/><path d="m45.1006 17.3732v2.9593h-.542v-2.9593h-1.084v-.4445h2.71v.4445z"/><path d="m49.106 20.3325v-1.4905h-1.729v1.4905h-.542v-3.4038h.542v1.4743h1.7561v-1.4743h.5149v3.4038z"/><path d="m55.8052 20.3325-.141-1.5339c0-.233-.0433-.542-.0542-.775-.1084.2384-.271.5691-.3848.7913l-.8022 1.5447h-.1951l-.8021-1.5447c-.1139-.2277-.2602-.542-.374-.7805 0 .2602-.038.542-.0542.7642l-.1355 1.5339h-.4607l.2981-3.4038h.3198l.9051 1.7507c.1355.2601.3144.6125.4282.8726.103-.2601.271-.5908.4173-.8726l.8943-1.7507h.3198l.3035 3.4038z"/><path d="m59.4745 20.3325-.3686-.8781h-1.3225l-.3685.8781h-.5095l1.4526-3.4526h.1897l1.4471 3.4526zm-.8835-2.1247c-.0433-.1084-.0975-.271-.1409-.4173-.0379.1426-.0868.2822-.1463.4173l-.3361.8347h.9756z"/><path d="m63.507 20.4083-1.5935-1.729c-.2548-.2764-.542-.6178-.7859-.8943v.8564 1.7073h-.542v-3.4038h.3577l1.458 1.5989c.2005.2223.5095.542.7154.8185 0-.2602 0-.542 0-.8022v-1.626h.542v3.4797z"/><path d="m66.8457 20.3325-.3685-.8781h-1.3225l-.3686.8781h-.5095l1.4526-3.4526h.1843l1.4526 3.4526zm-.8834-2.1247c-.0576-.1353-.1047-.2748-.141-.4173-.0379.1426-.0868.2822-.1463.4173l-.3361.8347h.9702z"/><path d="m69.393 20.3976c-.2403.0153-.4813-.0185-.7082-.0994-.2269-.081-.4349-.2073-.6114-.3713-.1764-.164-.3175-.3623-.4148-.5827-.0972-.2203-.1485-.4582-.1507-.6991s.0447-.4797.1379-.7018c.0931-.2222.2306-.423.404-.5902s.379-.2974.6044-.3824c.2254-.0851.4657-.1234.7063-.1124.3793-.0096.754.084 1.084.271l-.0975.4607c-.2833-.1757-.6097-.2695-.9431-.271-.1788-.009-.3575.0189-.525.0819-.1676.063-.3204.1598-.449.2843-.1285.1245-.2302.2742-.2985.4396-.0684.1654-.102.3431-.0988.5221.0205.2364.0999.4639.2309.6617.1311.1978.3096.3596.5193.4706.2097.1111.4439.1678.6811.1651.2373-.0028.4701-.065.6771-.1809v-.7534h-.7859v-.4173h1.2791v1.4146c-.356.2699-.7947.4078-1.2412.3903z"/><path d="m71.5449 20.3325v-3.4038h1.8483v.4445h-1.3225v1.0298h1.084v.439h-1.084v1.0461h1.5067v.4444z"/><path d="m77.7293 20.3325-.1409-1.5339c0-.233-.038-.542-.0488-.775-.1084.2384-.2764.5691-.3848.7913l-.7914 1.5447h-.1897l-.8021-1.5447c-.1193-.2277-.2602-.542-.3794-.7805 0 .2602-.038.542-.0542.7642l-.1301 1.5339h-.4607l.2926-3.4038h.3198l.9106 1.7507c.1301.2601.3144.6125.4228.8726.1084-.2601.271-.5908.4173-.8726l.8943-1.7507h.3252l.3035 3.4038z"/><path d="m79.0625 20.3325v-3.4038h1.8374v.4445h-1.3171v1.0298h1.084v.439h-1.084v1.0461h1.5014v.4444z"/><path d="m84.7319 20.4083-1.5826-1.729c-.2548-.2764-.542-.6178-.7805-.8943v.8564 1.7073h-.542v-3.4038h.3577l1.4634 1.5989c.1952.2223.5041.542.7155.8185 0-.2602 0-.542 0-.8022v-1.626h.5149v3.4797z"/><path d="m87.1385 17.3732v2.9593h-.542v-2.9593h-1.084v-.4445h2.71v.4445z"/></g></svg>