<svg fill="none" height="26" viewBox="0 0 110 26" width="110" xmlns="http://www.w3.org/2000/svg"><path d="m13.6008 13.8471c.1381-.3961-.0626-.8322-.4482-.9741l-12.03617-4.88383c-.225158-.0891-.477401-.06936-.686811.05375-.064624.03336-.12345.07702-.176079.12789l9.21946 7.96419 3.748-1.8566c.1772-.0866.3137-.2416.3798-.4313z" fill="#c1224d"/><path d="m45.1984 13.9677-1.8587-5.08295c-.0471-.12513-.184-.18739-.3058-.13904-.0622.02468-.1114.07517-.1354.13904l-1.8587 5.08295c-.0443.1215.0157.2569.134.3024.0277.0106.0571.0157.0866.0148h3.7337c.1219.0012.2216-.0992.2227-.2244.0003-.0319-.0059-.0635-.0184-.0928zm.8667 2.8511h-5.892c-.0984.0008-.1862.0639-.2205.1587l-1.1659 3.1704c-.0343.0949-.1221.158-.2206.1587h-2.5518c-.1299.0021-.2368-.1044-.2388-.2379-.0005-.0332.0057-.0662.0182-.0969l5.8752-14.8148c.0361-.09132.1248-.14892.2206-.14325h2.4419c.094.00083.1795.05634.2205.14325l5.8752 14.8148c.0502.1231-.0064.2647-.1262.3162-.0299.0128-.062.0191-.0944.0186h-2.5503c-.0985-.0007-.1863-.0639-.2206-.1587l-1.1658-3.1704c-.0232-.096-.1085-.1623-.2047-.159zm5.5768-6.6121h2.1895c.1285.0025.2325.1081.2365.2401v9.6217c-.0042.1315-.1084.2364-.2365.238h-2.1895c-.1281-.0016-.2323-.1065-.2365-.238v-9.6217c-.0014-.1312.101-.2387.2286-.2402.0027 0 .0053 0 .0079.0001zm10.3974 2.342c-.004.132-.108.2376-.2365.2402h-.0627c-1.0872 0-1.8746.2534-2.3787.78s-.7563 1.3859-.7563 2.5955v3.8873c-.0038.1319-.1078.2376-.2362.2401h-2.1586c-.1285-.0025-.2325-.1081-.2364-.2401v-9.6049c.0039-.132.1079-.2376.2364-.2402h2.1425c.1285.0026.2325.1082.2365.2402v1.8949h.0472c.2188-.7202.6478-1.354 1.2288-1.8155.6069-.4397 1.3373-.66332 2.0795-.63676h.1102v2.65926zm5.9703-.0947c-.1279.0018-.2319.1066-.236.238v3.999c-.0293.3122.0548.6245.236.8769.1577.174.4253.2534.8192.2534h.2208c.1284.0027.2322.1083.2361.2402v2.0072c-.0041.1314-.1081.2363-.2361.238h-.9289c-.9618 0-1.7013-.2556-2.2211-.7492-.52-.509-.7719-1.2426-.7719-2.2452v-4.6203c-.0042-.1315-.1084-.2364-.2365-.238h-1.3703c-.1284-.0026-.2322-.1082-.2361-.2401v-1.7671c.0039-.1319.1077-.2375.2361-.2401h1.3705c.1281-.0016.2323-.1065.2365-.23801v-3.56926c.004-.13151.1082-.23641.2362-.23796h2.1897c.1282.00153.2324.10641.2365.23796v3.56926c.0041.13141.1082.23631.2363.23801h1.5752c.1285.0025.2325.1081.2365.2401v1.7671c-.004.132-.108.2376-.2365.2401zm10.0035 4.8428c.5089-.5531.7762-1.2954.7404-2.0555.0285-.759-.2379-1.4984-.7404-2.0556-1.1054-1.0399-2.8012-1.0399-3.9066 0-.509.5531-.7764 1.2954-.7404 2.0556-.0285.7589.2379 1.4984.7404 2.0555.5166.5286 1.2248.8114 1.9534.7801.7301.0416 1.4422-.2428 1.9532-.7801zm-5.0417 2.6922c-.7399-.4306-1.342-1.0728-1.7329-1.8485-.8402-1.8366-.8402-3.9622 0-5.7988.3955-.7724.9965-1.4134 1.7329-1.8486.7398-.4276 1.5764-.64721 2.4253-.63675.6938-.01759 1.3811.14134 2.0007.46265.5478.298 1.0055.7445 1.3233 1.2912h.0474v-1.1813c.0049-.1311.1086-.2355.2363-.2379h2.1581c.1278.0023.2316.1067.2365.2379v9.6217c-.004.132-.108.2376-.2365.2402h-2.1568c-.1285-.0026-.2324-.1082-.2363-.2402v-1.1784h-.0483c-.3178.5466-.7755.9933-1.3233 1.2912-.6199.3202-1.307.4791-2.0007.4626-.849.0105-1.6858-.2092-2.4257-.637zm17.4233-2.6924c.5089-.5531.7763-1.2954.7404-2.0555.0285-.759-.2378-1.4985-.7404-2.0556-1.1054-1.0399-2.8012-1.0399-3.9066 0-.5089.5531-.7763 1.2954-.7404 2.0556-.0285.7589.2379 1.4984.7404 2.0555.5166.5286 1.2248.8114 1.9534.7801.7303.0418 1.4426-.2425 1.9539-.7799zm-3.2765 2.8666c-.5478-.298-1.0056-.7446-1.3235-1.2912h-.0472v1.1789c-.004.1319-.108.2375-.2365.2401h-2.1889c-.1284-.0026-.2324-.1082-.2362-.2401v-14.81485c.0048-.13113.1085-.23555.2362-.23796h2.1897c.1279.00229.2317.10675.2365.23796v6.38935h.0473c.3185-.5461.7761-.9925 1.3235-1.2911.6198-.3203 1.3068-.47921 2.0005-.46267.8491-.01074 1.686.20967 2.4253.63897.7399.4299 1.342 1.0716 1.7329 1.847.4428.8971.6595 1.894.6301 2.8994.0199 1.0044-.1963 1.999-.6301 2.8994-.395.7727-.9961 1.4139-1.7329 1.8485-.7399.4275-1.5765.6472-2.4253.6368-.6945.0061-1.3803-.158-2.0007-.4785zm10.4761.1288h-2.1885c-.1285-.0025-.2325-.1081-.2365-.2401v-14.81481c.0043-.13163.1083-.23671.2365-.23904h2.1891c.1276.00251.2312.10691.236.23796v14.81479c.0022.1305-.0991.238-.2261.2402-.0033.0001-.0066 0-.0099 0zm5.1517-7.7577c-.381.3125-.643.7522-.741 1.2427-.025.1303.058.2566.185.2821.017.0035.034.0049.052.0044h4.159c.131-.0002.238-.1097.237-.2447 0-.0088 0-.0176-.001-.0263-.063-.4762-.292-.9126-.646-1.2272-.455-.3721-1.025-.5644-1.607-.5421-.585-.0164-1.16.1626-1.638.51zm5.324-1.2426c.851.9385 1.276 2.2628 1.276 3.9812v.2886c-.005.1312-.109.2357-.237.238h-6.945c-.135.0026-.242.1167-.239.2548 0 .0106.001.0211.002.0315.09.5963.387 1.1392.835 1.5291.551.4433 1.239.6692 1.938.6368 1.008 0 1.937-.398 2.788-1.1941.093-.0872.237-.0808.322.0144.009.0106.017.022.025.0341l1.055 1.5444c.062.1015.049.233-.031.3196-.524.4586-1.101.8493-1.717 1.1634-.768.3515-1.602.5253-2.442.509-.985.0231-1.96-.2072-2.836-.6698-.789-.426-1.441-1.0791-1.8745-1.8795-.4588-.8579-.6923-1.8238-.6774-2.8025-.0176-.9808.2045-1.9504.646-2.8201.4139-.7978 1.0429-1.4559 1.8119-1.895.835-.4677 1.774-.70391 2.725-.6853 1.544-.01848 2.725.4596 3.576 1.4005zm-53.7192-4.65108c.0132.91157-.6955 1.66156-1.5829 1.67517-.8874.01359-1.6175-.71435-1.6308-1.62592-.0132-.91156.6954-1.66157 1.5829-1.67516.0027-.00004.0054-.00008.0081-.00011.8822-.00441 1.6048.7189 1.6233 1.62494z" fill="#181d26"/><path d="m13.5645.329528-11.33209 4.796682c-.38495.16189-.56926.61368-.41165 1.00912.07893.19805.2342.35366.42888.42984l11.36546 4.62143c.9987.4035 2.1091.4035 3.1078 0l11.3663-4.62187c.3888-.15793.5793-.60971.4256-1.00906-.0746-.1937-.2217-.34857-.4084-.4299l-11.332-4.796683c-1.0274-.438936-2.1827-.438776-3.2099.000441z" fill="#fcb427"/><path d="m16.1913 13.7003v11.523c-.0033.4256.3299.7733.7442.7767.0979.0008.195-.0181.2859-.0557l12.6712-5.0252c.2883-.1165.4786-.4013.4807-.7195v-11.54247c.0035-.42486-.3289-.77218-.7426-.77575-.0985-.00086-.1962.01825-.2875.05626l-12.6712 5.04096c-.2948.1092-.4884.3999-.4807.7217z" fill="#0ab2fa"/><path d="m.240342 8.18196c-.146199.13587-.23286515.32658-.240342.52897v10.82147c.00618397.1049.0316791.2076.0751379.3027.1897121.415.6710761.5935 1.0751421.3987l7.93249-3.9.37776-.1927.01208-.006-9.219461-7.9642c-.004079.00394-.008823.00704-.012807.01106z" fill="#fc4777"/></svg>