<svg fill="none" height="26" viewBox="0 0 99 26" width="99" xmlns="http://www.w3.org/2000/svg"><path d="m17.0039.869427v6.465603.11593c0 2.43459-.2576 5.57384-2.2707 8.32934-.4198.5618-.8873 1.088-1.4502 1.5963l-.0096.0089c-1.0972.981-2.5378 1.9085-4.5986 2.9786-2.06082-1.0702-3.51112-1.9976-4.59862-2.9786l-.00954-.0089c-.56281-.5085-1.03985-1.0257-1.45022-1.5964-2.013108-2.7467-2.270717-5.89465-2.270717-8.32937v-.8026-5.778732l.33393-.035673c.047705-.00898 4.512847-.526208 7.995097-.526208 3.48257 0 7.94747.517228 7.99507.526156l.334.035672z" fill="#bf5700"/><path d="m8.67487 1.03003c-2.59515 0-5.75283.2943-7.15537.43697l-.40075 5.18115h7.55617 7.55618l-.3907-5.18115c-1.4121-.14264-4.5703-.43694-7.16548-.43694zm0 6.0552-7.56598.39265c.00002 2.32742.2481 5.32392 2.13716 7.90122.39128.5263.83973 1.0252 1.37395 1.5069 1.66012 1.4267 3.53018 2.2117 4.05487 2.4169.52469-.2052 2.39473-.9902 4.05483-2.4169.5343-.4817.983-.9717 1.374-1.5069 1.8796-2.5773 2.1273-5.5738 2.1273-7.90122z" fill="#fff"/><path d="m7.76823 1.94835c-.39116 0-.81122.06285-1.25009.11635-.48657.07135-.99167.13333-1.49733.13333h-.23857v.91875h-.35307v.53493h.35307v.73128h-.35307v.53492h.35307v.99875h.23857c.54383 0 1.07755-.07977 1.58321-.15111.43887-.06242.84937-.12525 1.19283-.12525.28623 0 .49624.0361.65844.11636h.45804c.1622-.08026.37222-.11636.65844-.11636.35302 0 .76263.06283 1.19193.12525.5153.07135 1.0498.15111 1.5841.15111h.2386v-.99875h.3531v-.53492h-.3531v-.73128h.3531v-.52603h-.3531v-.92762h-.2386c-.5056 0-1.0116-.0709-1.4982-.13333-.4484-.06255-.86774-.11649-1.24949-.11649-.36255 0-.66803.05379-.91611.1608-.24805-.10701-.55356-.16079-.91624-.16079zm.90655 5.50278c-.00954 0-.01908.00887-.01908.01778l-.8302 2.3805h-2.67108c-.00954 0-.01909.00078-.02863.00969 0 .01784.00001.02667.01909.02667l2.16533 1.47143-.8302 2.3983s0 .0089.00954.0089h.00954l2.18529-1.4804 2.18442 1.4804h.0095c.0096-.009.0096-.0178 0-.0178l-.8302-2.3894 2.1662-1.47142c.0096 0 .0191-.00883.0096-.02666 0-.00892-.0096-.0097-.0191-.0097h-2.68063l-.83021-2.38049c0-.00892-.00954-.01778-.01908-.01778zm-4.93271.48159-.15268.12444c-.37211.25862-.62983.63372-.71571 1.06177-.0477.21402-.0477.42757 0 .63269-.18109-.13419-.39111-.23209-.61054-.30336l-.2004-.05326-.04771.18667c-.10495.42803-.02858.86503.2004 1.23953s.61082.6517 1.04969.7765l.17177.0445c.01908.1337.05726.267.10497.4007-.24806-.1516-.53445-.2407-.8302-.2585l-.2004-.0178v.1964c-.00954.4369.16228.8473.4676 1.1684.31484.321.73487.517 1.20239.5527l.18131.0178c.0477.1337.11452.259.19085.366-.20036-.0713-.41992-.1075-.63936-.1075-.07632 0-.15269 0-.22902.0089l-.2004.0267.03817.1875c.08587.428.3436.8031.72524 1.0617.31484.214.67761.3208 1.06877.3208.07633 0 .1527 0 .22903-.0089l.18044-.0177c.07633.1159.16225.2227.2672.3208-.28623-.0446-.59084-.0181-.86751.0711l-.19085.063.07634.1778c.18128.4013.51452.7226.93433.892.23852.0981.48671.1519.73479.1519.20035 0 .41036-.0361.60118-.0985l.14314-.0445c.23852.1873.50583.375.87793.6157-.17173.1071-.35313.2137-.563.3475l.36263.2052c.20035-.1248.38174-.2323.54394-.3393.1622.0981.34358.2145.54395.3393l.36263-.2052c-.2099-.1249-.39127-.2404-.563-.3475.3721-.2407.63941-.4284.87793-.6157l.14229.0445c.1908.0624.4008.0985.6012.0985.2576 0 .5058-.0538.7348-.1519.4198-.1783.7539-.4908.9351-.892l.0764-.1778-.1909-.063c-.2766-.0892-.5821-.1157-.8683-.0711.1049-.0981.1908-.2049.2672-.3208l.1813.0177c.0763.0089.1527.0089.229.0089.3912 0 .7539-.1067 1.0688-.3208.3721-.2586.6298-.6337.7252-1.0617l.0382-.1875-.2004-.0267c-.0763-.0089-.1527-.0089-.229-.0089-.2195 0-.4295.0362-.6394.1075.0763-.1159.1431-.2412.1909-.366l.1813-.0178c.4675-.0357.8875-.2317 1.2024-.5527.3148-.321.4762-.7404.4667-1.1684v-.1964l-.21.0178c-.2957.0178-.5812.1159-.8293.2585.0572-.1248.0859-.267.105-.4007l.2099-.0445c.4484-.1248.8198-.402 1.0488-.7765.229-.3746.3054-.8115.2004-1.23953l-.0477-.18666-.2004.05333c-.229.06243-.4286.16925-.6099.30302.0382-.20511.0382-.41867 0-.6327-.0858-.42804-.3436-.80314-.7157-1.06176l-.1622-.11555-.105.16c-.248.36562-.334.80257-.2481 1.23064.0859.42805.3436.79421.7157 1.05291-.0668.1427-.1145.3033-.1431.4549-.1145-.2854-.2959-.5351-.5535-.7313l-.1631-.12553-.1239.16083c-.2671.3567-.3913.7848-.3245 1.2129.0573.428.2959.82.649 1.0965l.0095.0089c-.105.1337-.1909.2766-.2481.4371-.0477-.2943-.1718-.5794-.3817-.829l-.1241-.152-.1527.1334c-.3434.2943-.5534.6959-.5916 1.124-.0382.428.105.8562.3912 1.195l.0096.0089c-.1336.107-.2482.2412-.3436.3749.0191-.3032-.0382-.6067-.1908-.8831l-.0955-.1697-.1813.0985c-.4007.223-.6966.5708-.8302.9899-.1335.4191-.0858.856.1241 1.2484v.0089c-.1527.0803-.2959.1871-.4103.303.0858-.2943.0954-.5977.0095-.901l-.0477-.1866-.1909.0622c-.43884.1427-.80074.4278-1.02971.8113-.2099.3656-.26717.7937-.16222 1.204-.05725.0356-.12407.0807-.18131.1163-.06679-.0446-.12407-.0807-.18131-.1163.10495-.4102.04767-.8384-.16223-1.204-.21943-.3835-.58218-.6686-1.0306-.8113l-.19085-.0622-.04772.1866c-.08587.2944-.07632.6067.00954.901-.12403-.1159-.25768-.2227-.41986-.303l.00954-.0089c.2099-.3924.24809-.8293.12406-1.2484-.13357-.4192-.42951-.7669-.8302-.9899l-.18131-.0985-.09543.1697c-.15265.2764-.20907.5799-.18999.8831-.09541-.1426-.20996-.2679-.34354-.3749l.00954-.0089c.28623-.3389.42942-.767.39125-1.204-.03816-.4369-.24818-.8297-.59165-1.1239l-.15269-.1334-.12405.152c-.2099.2407-.33402.5258-.38172.829-.05802-.1514-.14379-.3034-.24889-.437l.00954-.0089c.36255-.2765.59165-.6685.64891-1.0965.05725-.4281-.0573-.8651-.32445-1.2129l-.12406-.16079-.16222.12529c-.25761.1962-.44854.4459-.55348.7312-.01908-.1605-.06681-.3122-.14314-.4549.37211-.2586.62983-.63374.71571-1.05289.08586-.42805-.00005-.86502-.24811-1.23065l-.10497-.15999z" fill="#bf5700"/><path d="m7.75855 2.3853c-.35302 0-.75396.05312-1.1833.11555-.38164.05351-.76263.09849-1.16335.12525l-.10497 2.82736c.40073-.01784.81033-.07171 1.21105-.13413.44843-.06243.87802-.12525 1.26919-.12525.20989 0 .39127.01846.55347.05414l.08589-2.36353v-.3927c-.17154-.07132-.39106-.10669-.66798-.10669zm1.83219 0c-.27669 0-.48671.03532-.668.10666v.3927l.08588 2.36352c.1622-.03567.34357-.05413.55348-.05413.39116 0 .8199.06282 1.2683.12524.4007.06243.8112.1163 1.2119.13414l-.1048-2.82737c-.4008-.02678-.7921-.07176-1.1643-.12526-.4294-.06242-.8293-.1155-1.18246-.1155zm-5.94426 6.09097c-.2099.19619-.34354.43708-.40081.70462-.0477.26754-.01906.54383.09543.78461.2099-.19619.34355-.43708.40081-.70462.0477-.26754.01906-.5349-.09543-.78461zm10.02772 0c-.1145.2497-.1527.52595-.0954.79349.0572.26754.2004.50843.4008.70462.1145-.2497.1526-.52595.0954-.79349s-.2004-.51733-.4008-.70462zm-4.99943.66016-.49621 1.15877-1.34553.0896 1.04016.8024-.33399 1.2129 1.13557-.6691 1.13557.6691-.33399-1.2129 1.02975-.8024-1.33512-.0808zm-6.31648.73125c-.01908.26752.04775.54382.19086.77572s.36266.419.62027.5349c.02862-.2675-.0382-.5349-.19086-.7757-.14311-.2319-.36266-.41898-.62027-.53492zm12.61281 0c-.2672.11594-.4763.30302-.6194.53492-.1431.2408-.21.5082-.1909.7757.2576-.1159.4763-.303.6194-.5349.1431-.2408.2099-.5082.1909-.77572zm-10.79012.66822c-.19082.2051-.31493.4549-.35307.7224-.03817.2676.00957.5439.14314.7847.19082-.2052.31492-.4541.35307-.7216.03816-.2765-.00957-.5447-.14314-.7855zm8.96852 0c-.1336.2408-.1813.5179-.1431.7855.0381.2675.1622.5164.353.7216.1336-.2408.1813-.5171.1432-.7847-.0382-.2675-.1623-.5172-.3531-.7224zm-10.23764 1.6323c.0477.2675.1718.5173.36263.7224.19081.2051.44856.3481.72523.4016-.0477-.2676-.1718-.5262-.36263-.7224-.19082-.1962-.44857-.3392-.72523-.4016zm11.49724 0c-.2767.0624-.5249.1965-.7252.4016-.2004.2051-.3245.4548-.3627.7224.2767-.0624.5344-.1965.7253-.4016.2003-.1962.3244-.4459.3626-.7224zm-1.9276.303c-.1813.214-.2959.4637-.3149.7402-.0191.2764.0477.5438.1813.7757.1813-.2141.2958-.4727.3149-.7402.0286-.2764-.0382-.5438-.1813-.7757zm-7.64196.0089c-.14312.2319-.2004.4993-.19086.7757.02862.2764.13364.5261.3149.7402.14311-.2319.20994-.4993.19085-.7758-.02862-.2764-.13363-.5261-.31489-.7401zm1.07746 1.7656c-.08587.2586-.09541.5357-.00954.7943s.24815.4899.4676.6593c.08587-.2586.09541-.5349.00955-.7935-.08587-.2586-.24816-.4907-.46761-.6601zm5.4863 0c-.2195.1694-.3817.4015-.4676.6601s-.0763.5349.0095.7935c.2195-.1694.3817-.4007.4676-.6593.0859-.2587.0763-.5357-.0095-.7943zm-7.44156.0808c.10495.2497.27679.4721.5153.6327.23853.1605.51536.2407.79206.2585-.09541-.2586-.26724-.4721-.50577-.6327-.23853-.1605-.51536-.2496-.80159-.2585zm9.38836 0c-.2862.0089-.563.098-.8016.2585-.2289.1606-.4103.3741-.5057.6327.2862-.0089.563-.098.8016-.2585.2385-.1606.4103-.383.5057-.6327zm-3.39617 1.4359c-.24806.1248-.45807.3208-.60118.5616-.14311.2407-.20039.5082-.16223.7757.25761-.1249.46763-.3208.60118-.5616.13358-.2408.19085-.5082.16223-.7757zm-2.58607.0089c-.02862.2675.02866.5349.16223.7668.13357.2408.3436.4367.60118.5616.02862-.2676-.02865-.535-.16223-.7757-.13357-.2319-.3436-.4279-.60118-.5527zm-1.6743.4258c-.07126.0019-.14272.009-.21428.0202.15266.2319.37135.419.63849.526.2576.107.55353.1424.83976.0978-.15266-.2319-.37222-.419-.63936-.526-.20036-.087-.41084-.1239-.62461-.118zm5.94254.0016c-.216-.0038-.4305.0361-.6237.1164-.2672.1159-.4867.2941-.6394.526.0859.0089.1718.0178.2577.0178.2004 0 .4008-.0353.5821-.1156.2671-.1159.4867-.2942.6393-.526-.0715-.0112-.144-.0173-.216-.0186z" fill="#fff"/><path d="m92.2887 1.11035c-3.425.66886-5.8966 2.14028-5.8966 4.65509 0 2.05109 1.4604 3.11191 3.2351 3.82515l2.9858 1.22181c1.4789.5975 2.5661 1.4985 2.5661 3.068 0 1.6855-1.2305 2.925-3.3485 2.925-1.3834 0-2.738-.5975-3.4727-1.4537l-.8589-1.9619h-1.7263l.5431 3.1125c1.3071.9631 2.8336 1.5692 5.1045 1.5692 4.6367-.9007 6.2113-2.9963 6.2113-5.1634 0-2.3543-1.6981-3.50509-3.6445-4.28985l-2.8342-1.14985c-1.3548-.55291-2.318-1.33797-2.318-2.6043 0-1.5428 1.1542-2.5324 3.11-2.5324 1.4789 0 2.2704.5078 2.9096 1.13207l.7157 2.09605h1.231v-3.11244c-1.2304-.85583-2.9569-1.33703-4.5125-1.33703zm-15.0175.18747-1.4783.39188-6.116 14.9375-1.1833.1519-1.1824-.1697-5.4768-7.5357 5.0569-6.50057 1.9267-.24968-.124-.8032-2.881.07191-2.8811-.07191-.124.8032 2.1462.30302-3.9116 5.37745-3.4822-5.39521 2.0985-.30302-.1241-.8032-3.5013.0897-3.5299-.0897-.124.8032 1.9276.24969 5.1037 7.21406-5.3232 6.84886-1.9276.2497.1241.8298 2.757-.0719 2.8818.0719.1241-.8298-2.0231-.2764 4.2074-5.7427 3.8354 5.725-2.0986.303.1241.8298 3.5299-.0719 2.881.0542 2.023-.0542 2.9573.0719.1241-.8032-2.1463-.303 1.6023-4.3076h6.0875l1.6795 4.3076-2.0994.303.1241.8032 3.2532-.0719 3.4069.0719.124-.8032-1.9276-.2496zm-55.7455.20443v4.07578h.9638l1.1347-2.925 3.693-.04444v13.96521l-2.9581.3031.1241.8024 4.1406-.0712 3.9974.0712.124-.8024-2.8333-.3031v-13.96521l3.6921.04444 1.1356 2.925h.9638v-4.07578l-7.099.07192zm15.6561 0-.1241.8032 2.2234.30302v13.96523l-2.2234.303.1241.8024 3.4068-.0711 9.788.0711.8589-4.2624h-.9352l-1.65 3.1124-6.784.0711v-6.92006l3.4545.09777.982 2.41689h.8684l-.2481-3.11248.2481-2.87983h-.8684l-.982 2.41605-3.4545.09858v-6.13534l6.5359.07111 1.3837 2.99627h.8389l-.2481-4.14679-9.7881.07192zm-29.46059 1.3057c-.27057-.00251-.55852.02774-.85189.06787v.36524c.41025-.05351.78255-.08897 1.10695-.06222l.00954-.35636c-.08587-.00892-.17441-.01369-.2646-.01453zm2.0968.00889c-.15743-.0078-.31016-.00772-.45804.00566l.00954.35635c.27668-.01783.59084-.00014.93429.04444v-.36523c-.1669-.01783-.32836-.03342-.48579-.04122zm.77209.06787v.36605c.0668.00891.1241.01774.1909.02666.248.03567.4962.07102.7538.09777l-.0095-.36523c-.229-.02675-.4581-.05402-.6871-.08969-.0859-.00892-.1622-.01772-.2481-.03556zm-4.00692.02667c-.02862.00892-.04772.00889-.07634.00889-.22898.03567-.4581.06294-.68709.08969l-.00954.36523c.2576-.02675.50579-.0621.75387-.09777h.01909zm1.03668.71754c-.3457.00962-.71469.05881-1.09394.11232v.36523c.01908 0 .02863.00003.04771-.00889.51522-.07135.98298-.13342 1.37414-.10666l.00954-.35717c-.10971-.00668-.22221-.00803-.33745-.00483zm1.7784.00485.00954.35717c.24806-.01784.52404-.00012.8198.03555v-.35717c-.29576-.02675-.57176-.04447-.82934-.03555zm1.11564.06222v.36604c.0859.00892.1813.02664.2672.03556.2576.03567.5153.07101.7825.09777l-.0096-.36523c-.2385-.02676-.4771-.06214-.7157-.08889-.1049-.01784-.2195-.02741-.3244-.04525zm-4.28385.0808c-.14311.01784-.29584.0355-.43895.05333l-.00954.36524.45803-.05333v-.36524zm69.77365.4905 2.6901 6.91121h-5.2477zm-66.57562.17776.00954.35717c.31484-.01784.68628.0176 1.07748.07111v-.35636c-.3818-.05326-.7532-.08967-1.08702-.07192zm-1.50776.0089c-.3244-.01784-.67761.01843-1.04968.06302v.36524c.38163-.05351.73484-.08895 1.04015-.07111zm2.89058.08969v.37411h-.0096c.2576.03567.525.07182.8016.09858l-.0095-.36604c-.2576-.02676-.5058-.06211-.7443-.09778-.0096 0-.0191.00005-.0382-.00887zm-4.22668.00889c-.02863 0-.04772.00888-.0668.00888-.24807.03567-.49627.07102-.74432.09778l-.00955.36604c.27668-.02676.55353-.06291.82067-.09858h.01908v-.37411zm21.16558 16.69967-.5639.0606-1.2891.0089-1.5095-.0089v.8403h.2004l.2386-.5979.7929-.017v2.8864l-.6307.0606.0286.1648.8797-.0177.8493.0177.0295-.1648-.6021-.0606v-2.8864l1.0697.017.1908-.0259v2.9211l-.3149.0437.0287.164.5543-.017.4962.017.0286-.164-.2862-.0437v-1.4132l.1526-.0865c.1911-.1127.392-.2166.5544-.2166.2101 0 .334.1042.334.3556v1.3607l-.2577.0437.0286.164.4963-.017.5925.0089.0286-.1648-.3912-.0437v-1.2654c0-.6067-.1147-.8322-.7834-.8322l-.7643.4508v-1.5425zm57.0572.017-.3158.0783-1.2986 3.0851-.4112.0525.0286.1648.5638-.0177.6307.0177.0287-.1648-.4589-.0606.3444-.8929v.0089h1.2891l.3531.8921-.4485.0614.0286.164.6975-.017.7261.017.0286-.164-.4112-.0525zm-23.1845.0177-.4389.4509c-.1911.1907-.2863.3806-.2863.6667v.0436h-.3062l-.1623.1648v.0776h.459v1.7599l-.3731.0436.0286.1641.6021-.017.812.017.0286-.1818-.602-.0348v-1.7591h.6593v-.2254h-.6593v-.1212c0-.312.0381-.4507.1145-.5374l.105-.1301h.6784v-.3814zm-28.1236.0259-.0286.1648.478.0606v1.9329c0 .7627.3729 1.2654 1.4045 1.2654 1.0508-.2254 1.3273-.6325 1.3273-1.2565v-1.9417l.4494-.0606-.0286-.1649-.6116.017-.6689-.017-.0286.1649.4589.0517v1.9934c0 .6154-.3057.9446-.8502.9446-.6018 0-.8788-.3375-.8788-.9268v-2.0024l.4485-.0606-.0286-.1648-.7166.017zm30.1949.0089v.8403h.21l.2385-.6068.7929-.0081v2.8856l-.6298.0614.0287.164.8788-.017.8501.017.0191-.164-.602-.0614v-2.8856l.7929.0081.2386.6068h.2003v-.8403l-1.5085.0169zm-22.7253.0081-.3817.0266-.0477.2247.0286.269.1431.0259.3722-.0259.0572-.2254-.0286-.2683zm10.8803 0-.3826.0266-.0477.2247.0286.269.144.0259.3722-.0259.0572-.2254-.0286-.2683zm42.4713 0-.3826.0266-.0477.2247.0286.269.1431.0259.373-.0259.0573-.2254-.0286-.2683zm-9.7441.4597.0382.2602.4971 1.2565h-1.1174zm-31.2936.0259-.3444.3119v.3119h-.3435l-.1813.1648v.0784h.5057v1.4213c0 .4334.0767.6238.6689.6238l.6593-.3288-.0859-.1649c-.1433.0607-.306.1301-.4589.1301-.2197 0-.2767-.1473-.2767-.286v-1.4561h.7929l.8788 2.0104.2099-.0606-.5257.7192h-.4485v.4767.0178h.6307l.5917-1.2048.8501-1.9506.3349-.0518-.0286-.1648-.4399.0178-.458-.0178-.0286.1648.2385.0518-.6498 1.7251-.0381-.3297-.583-1.3954.3444-.0518-.0286-.1648h-1.6526v-.5979zm27.4916 0-.3444.3119v.3119h-.3436l-.1813.1648v.0784h.5058v1.4213c0 .4334.0766.6238.6689.6238l.6116-.3119-.0859-.1648c-.1529.0607-.2679.1131-.4208.1131-.2197 0-.2767-.1473-.2767-.286v-1.3955h.7929v-.2166h-.7929v-.6504zm11.5675 0-.3435.3119v.3119h-.3435l-.1822.1648v.0784h.5066v1.4213c0 .4334.0766.6238.6689.6238l.6107-.3119-.0859-.1648c-.1432.0607-.2575.1131-.4103.1131-.2197 0-.2767-.1473-.2767-.286v-1.3955h.7825v-.2166h-.7921v-.6504zm-42.4012.5026c-.6113.1213-.9551.3122-.9551.6416 0 .2686.2097.4503.439.5543l.4112.1996c.277.13.3817.2171.3817.3991 0 .1994-.1429.3637-.4199.3637-.1624 0-.3157-.0519-.4303-.1213l-.1813-.3991h-.3349l.0963.5381c.1433.0694.4768.2166.8016.2166.6018-.1213.9847-.2777.9847-.7111 0-.2687-.1437-.4502-.4971-.6149l-.4008-.1826c-.2293-.104-.3635-.1987-.3635-.3547 0-.1734.201-.278.4016-.278.1911 0 .3435.0782.4008.1042l.1336.3378h.2776v-.4767c-.1528-.104-.4586-.2166-.7452-.2166zm25.3323 0c-.6114.1213-.9551.3122-.9551.6416 0 .2686.2105.4503.4398.5543l.4103.1996c.277.13.3826.2171.3826.3991 0 .1994-.1437.3637-.4207.3637-.1624 0-.3148-.0519-.4294-.1213l-.1822-.3991h-.334l.0954.5381c.1433.0694.4872.2166.8025.2166.6018-.1213.9837-.2777.9837-.7111 0-.2687-.1427-.4502-.4962-.6149l-.4016-.1826c-.2293-.104-.3627-.1987-.3627-.3547 0-.1734.2002-.278.4009-.278.191 0 .3443.0782.4016.1042l.1336.3378h.2767v-.4767c-.1528-.104-.4586-.2166-.7452-.2166zm15.2267 0c-.6114.1213-.9552.3122-.9552.6416 0 .2686.2106.4503.4398.5543l.4104.1996c.2674.13.3825.2171.3825.3991 0 .1994-.1437.3637-.4207.3637-.1624 0-.3148-.0519-.4294-.1213l-.1822-.3991h-.334l.0955.5381c.1432.0694.4776.2166.8024.2166.6018-.1214.9838-.2777.9838-.7111 0-.2687-.1428-.4502-.4963-.6149l-.4016-.1826c-.2292-.104-.3626-.1987-.3626-.3547 0-.1734.2002-.278.4008-.278.191 0 .3539.0782.4016.1042l.1336.3378h.2768v-.4767c-.1542-.1039-.4594-.2166-.7452-.2166zm-59.2154.0178c-.7165.1386-1.1851.5197-1.1851 1.2217 0 .7541.5737 1.1612 1.2137 1.1612.3343-.078.6686-.2165.917-.3725l-.0859-.1819c-.2006.1127-.4492.1996-.6593.1996-.5445 0-.8693-.3815-.8693-.9276v-.0089h1.5954v-.1996c0-.494-.2292-.892-.9265-.892zm14.2039 0c-.7165.1386-1.1842.5197-1.1842 1.2217 0 .7541.5728 1.1612 1.2128 1.1612.3343-.078.6695-.2165.9179-.3725l-.0868-.1819c-.2006.1127-.4483.1996-.6584.1996-.5445 0-.8693-.3815-.8693-.9276v-.0089h1.5954v-.1996c0-.494-.2301-.892-.9274-.892zm13.5357 0c-.812.13-1.2892.5282-1.2892 1.2476 0 .6414.4773 1.1353 1.1746 1.1353.812-.1214 1.2901-.528 1.2901-1.2387 0-.6501-.4687-1.1442-1.1755-1.1442zm8.6543 0c-.7165.1386-1.1842.5197-1.1842 1.2217 0 .7541.5632 1.1612 1.2033 1.1612.3343-.078.6694-.2165.9178-.3725l-.0867-.1819c-.2006.1127-.4483.1996-.6585.1996-.5445 0-.8692-.3815-.8692-.9276v-.0089h1.6049v-.1996c0-.494-.2301-.892-.9274-.892zm5.1008 0-.9551.3894v.3645h.4494l.0859-.3814c.1146-.0434.2861-.0865.4294-.0865.277 0 .3062.173.3062.459v.2343l-1.185.3556c-.1146.1473-.1813.2686-.1813.4419 0 .3814.3248.6061.7738.6061l.6307-.4154.1622.3637.6784-.1212-.0191-.1649h-.2577c-.0477-.078-.0867-.1475-.0867-.3555v-.9357c0-.5981-.172-.7539-.8311-.7539zm5.9513 0-.936.3894v.3645h.4493l.0859-.3814c.1146-.0434.2862-.0865.4294-.0865.2771 0 .3063.173.3063.459v.2343l-1.185.3556c-.1147.1473-.1814.2686-.1814.4419 0 .3814.3249.6061.7739.6061l.6211-.4154.1622.3637.6784-.1212-.0191-.1649h-.2672c-.0477-.078-.0867-.1475-.0867-.3555v-.9357c0-.5981-.172-.7539-.8311-.7539zm-39.8815.008-.7738.4598-.0286-.3992-.2299.0178-.6298.1471.0286.1648.3626-.0258v1.7421l-.3626.0436.0286.1641.6021-.017.5057.0258.0286-.1648-.2862-.0428v-1.4133l.1527-.0953c.1814-.1127.3633-.2166.5448-.2166.2197 0 .3435.1042.3435.3556v1.3607l-.2672.0436.0286.1641.5058-.017.6021.017.0286-.1641-.4008-.0436v-1.326c0-.572-.1147-.7806-.7834-.7806zm57.8504 0-.7738.4598-.0286-.3992-.2299.0178-.6298.1471.0286.1648.3626-.0258v1.7421l-.3626.0436.0286.1641.6012-.017.4971.0258.0286-.1648-.2863-.0428v-1.4133l.1622-.0953c.1815-.1127.3625-.2166.544-.2166.2197 0 .3444.1042.3444.3556v1.3607l-.2672.0436.0286.1641.5058-.017.6021.017.0286-.1641-.4017-.0436v-1.326c0-.572-.1138-.7806-.7825-.7806zm-48.4973.0178-.6021.6675-.0191-.6327-.2099.0169-.6307.1479.0286.164.3626-.0258v1.7421l-.3626.0436.0287.1649.5925-.0178.7642.0178.0287-.1826-.5543-.0429v-1.1353l.1049-.1131c.1433-.156.3729-.3118.4971-.3378h.3913v-.4767zm39.077.0348-.2576.0169-.6307.1212.0286.1827.3731-.0267v1.2484c0 .5547.1146.7798.812.7798l.7642-.4331.1432.3902.6784-.1212-.0191-.1648h-.2681c-.0382-.078-.0668-.1475-.0668-.3555v-1.6379l-.2672.0169-.5829.1212.0286.1827.3158-.0267v1.3438l-.105.0606c-.2006.1213-.411.2424-.5734.2424-.2579 0-.373-.1034-.373-.3548zm-46.185.008-.2672.0178-.6307.1471.0286.1648.3635-.0258v1.7421l-.3635.0436.0287.1641.602-.017.6021.017.0286-.1641-.3921-.0436zm.4398 0-.0286.1649.3244.0525.917 2.1057.3826-.147.8597-1.9587.334-.0525-.0286-.1649-.439.0178-.4589-.0178-.0286.1649.2385.0525-.6393 1.7244-.02-.3289-.5725-1.3955.3435-.0525-.0286-.1649-.5535.0178zm10.4215 0-.2577.0178-.6307.1471.0287.1648.3626-.0258v1.7421l-.3626.0436.0286.1641.6021-.017.5925.017.0286-.1641-.3921-.0436zm16.9173 0-.0286.1738.3245.0517.7642.9454-.7738.8662-.3722.0436.0287.1649.5439-.0178.4112.0178.0286-.1649-.2576-.0347.5534-.728.0382.1123.4685.6157-.2195.0436.0286.1641.4962-.017.6021.017.0286-.1641-.3245-.0436-.8215-1.0577.6966-.7628.3826-.0517-.0286-.1737-.5449.0177-.4103-.0177-.0286.1737.2577.0517-.4971.6505-.0382-.1212-.3912-.5293.2099-.0517-.0286-.1737-.4963.0177zm25.5526 0-.2577.0178-.6307.1471.0286.1648.3627-.0258v1.7421l-.3627.0436.0286.1641.6021-.017.5916.017.0287-.1641-.3913-.0436zm-63.2459.1649c.4108 0 .4867.2606.4867.6246l-1.0506.0428c.0383-.3987.2392-.6674.5639-.6674zm14.2134 0c.4108 0 .4876.2606.4876.6246l-1.0506.0428c.0382-.3987.2383-.6674.563-.6674zm13.5167 0c.449 0 .7738.4074.7738 1.0141 0 .5113-.2199.9017-.6402.9017-.4681 0-.7834-.4591-.7738-1.0052 0-.52.2103-.9106.6402-.9106zm8.6543 0c.4107 0 .4875.2606.4875.6246l-1.0505.0428c.0382-.3987.2478-.6674.563-.6674zm5.5409.9365v.6238l-.2195.139c-.0668.0433-.2011.1212-.3444.1212-.1528 0-.3054-.087-.3054-.3297 0-.104.0286-.1989.105-.2683zm5.9512 0v.6238l-.2194.139c-.0669.0433-.2011.1212-.3444.1212-.1529 0-.3054-.087-.3054-.3297 0-.104.0285-.1989.105-.2683z" fill="#bf5700"/></svg>