<svg fill="none" height="26" viewBox="0 0 83 26" width="83" xmlns="http://www.w3.org/2000/svg"><g fill="#d34310"><path d="m49.9251 9.62912c.3917.00948.7772-.09821 1.1073-.30925s.5897-.51583.7454-.87531c.1558-.35949.2007-.75729.1289-1.14244-.0717-.38516-.2568-.74012-.5316-1.01941-.2747-.27929-.6266-.47018-1.0105-.54822-.384-.07804-.7825-.03967-1.1444.11019-.362.14987-.671.40439-.8874.73097-.2165.32659-.3304.71035-.3274 1.10212.0115.5085.2165.99348.5732 1.35606.3567.36259.8383.57549 1.3465.59529z"/><path d="m79.4143 10.9896c-1.3312 0-2.5684.4334-3.6835 2.1683l-3.1883 5.0451v-3.776l2.3231-2.8175c1.5459-1.85581 3.4671-3.71492 3.4671-6.0986 0-2.35328-1.6414-3.7775-4.2114-3.7775-2.8788 0-4.4602 1.73467-4.4602 4.52079v6.68601l-5.5345 7.1034c-.555.6364-1.1979 1.2253-1.5415 1.2253-.4017 0-.8049-.2787-.8049-1.0532v-6.1612h4.0869v-2.7861h-4.0854v-4.3647h-2.9716v4.7491l-6.776 8.9965c-.1549.2788-.2175.3089-.372.3089-.1883 0-.2486-.1234-.2486-.4032v-9.2879h-2.9441v1.0783l-5.686 6.9501v-4.7136c0-2.1675-1.0535-3.5925-3.1893-3.5925-1.3315 0-2.6315.4333-3.7464 2.1683l-2.9295 4.7661v-3.3417c0-2.1675-1.0535-3.5925-3.1893-3.5925-1.3315 0-2.5596.4334-3.6746 2.1683l-3.0348 4.829v-6.7183h-3.001v1.0332l-4.6402 5.55c-.0869-.2329-.1774-.4562-.2645-.6688l-2.5373-5.9136h-3.1285v.9957l-9.119143 11.6209 3.393573.015 7.03577-9.1263 1.4952 3.4694c.3697.9278.8773 2.1422-.1397 2.9376-1.0288.8069-2.95257.012-3.54508-1.4414l-1.70553 2.0654c.71466 1.5061 2.63205 2.5808 4.59831 2.4503 1.1843-.0375 2.3177-.4898 3.2023-1.278l.0023.0013.0268-.0315c.1797-.173.3421-.3632.4851-.5676l4.8403-5.6668v7.1868h2.8163l5.6863-9.1946c.3406-.5576.5266-.7753.8682-.7753s.5256.1242.5256.8683v9.1019h2.7877l5.685-9.1947c.3396-.5575.5256-.7752.8652-.7752s.5276.1242.5276.8682v9.1019h2.7861l5.9048-7.1333v4.4394c0 1.5173.7734 2.9103 2.7876 2.9103 1.3034 0 2.3241-.3702 3.2532-1.8246l4.2983-5.7233v4.2355c0 1.7012.9916 3.3732 3.6239 3.3732 1.5771 0 3.0033-.8058 4.2205-2.6305l.4929-.7161 2.5165-3.2775v6.3459h2.7544l5.7882-9.1947c.3416-.5575.5276-.7752.8672-.7752s.5276.1242.5276.8682v9.1019h3.0026v-9.3178c0-2.1675-1.0522-3.5925-3.1896-3.5925zm-6.8718-4.95336c0-.92879.5558-1.60948 1.4547-1.60948.1759-.00917.3517.01923.5157.08332.1641.06409.3126.1624.4357.28837s.218.27673.2783.44222c.0602.16549.0846.34194.0713.51757 0 .55753-.2171 1.26989-.9906 2.25951l-1.7648 2.26125z"/></g></svg>