<svg width="24" height="24" viewBox="0 0 24 24" fill="none" xmlns="http://www.w3.org/2000/svg">
<g clip-path="url(#clip0_26543_3755)">
<path d="M5.58334 3.17391C5.58334 4.3913 4.575 5.34783 3.29166 5.34783C2.00833 5.34783 1 4.3913 1 3.17391C1 1.95652 2.00833 1 3.29166 1C4.575 1 5.58334 1.95652 5.58334 3.17391ZM5.58334 7.08696H1V21H5.58334V7.08696ZM12.9166 7.08696H8.33334V21H12.9166V13.6957C12.9166 9.6087 18.4166 9.26087 18.4166 13.6957V21H23V12.2174C23 5.34783 14.8416 5.6087 12.9166 9V7.08696Z" fill="#0B3558"/>
</g>
<defs>
<clipPath id="clip0_26543_3755">
<rect width="22" height="20" fill="white" transform="translate(1 1)"/>
</clipPath>
</defs>
</svg>
