<svg width="24" height="24" viewBox="0 0 24 24" fill="none" xmlns="http://www.w3.org/2000/svg">
<path d="M22.5395 7.51449C22.4207 7.0589 22.1788 6.64148 21.8381 6.30438C21.4975 5.96728 21.0703 5.72244 20.5996 5.59459C18.8796 5.19141 12 5.19141 12 5.19141C12 5.19141 5.12036 5.19141 3.40045 5.63298C2.92972 5.76083 2.50247 6.00567 2.16186 6.34278C1.82124 6.67988 1.57933 7.0973 1.46055 7.55288C1.14578 9.22853 0.991808 10.9284 1.00057 12.631C0.989351 14.3465 1.14333 16.0593 1.46055 17.7476C1.5915 18.189 1.83883 18.5905 2.17865 18.9134C2.51847 19.2363 2.93929 19.4695 3.40045 19.5907C5.12036 20.0322 12 20.0322 12 20.0322C12 20.0322 18.8796 20.0322 20.5996 19.5907C21.0703 19.4628 21.4975 19.218 21.8381 18.8809C22.1788 18.5438 22.4207 18.1263 22.5395 17.6708C22.8518 16.0077 23.0058 14.3209 22.9994 12.631C23.0107 10.9155 22.8567 9.20275 22.5395 7.51449V7.51449Z" stroke="#0B3558" stroke-width="1.82538" stroke-linecap="round" stroke-linejoin="round"/>
<path d="M9.75 15.77L15.4997 12.631L9.75 9.49194V15.77Z" stroke="#0B3558" stroke-width="1.82538" stroke-linecap="round" stroke-linejoin="round"/>
</svg>
